<?xml version="1.0" standalone="no"?>
<!DOCTYPE svg PUBLIC "-//W3C//DTD SVG 20010904//EN"
 "http://www.w3.org/TR/2001/REC-SVG-20010904/DTD/svg10.dtd">
<svg version="1.0" xmlns="http://www.w3.org/2000/svg"
 width="1386.000000pt" height="1386.000000pt" viewBox="0 0 1386.000000 1386.000000"
 preserveAspectRatio="xMidYMid meet">
<metadata>
Created by potrace 1.14, written by Peter Selinger 2001-2017
</metadata>
<g transform="translate(0.000000,1386.000000) scale(0.100000,-0.100000)"
fill="#000000" stroke="none">
<path d="M810 8483 c0 -1298 4 -2335 10 -2453 60 -1274 369 -1982 1062 -2437
372 -244 825 -386 1423 -445 196 -19 761 -16 952 5 645 72 1106 249 1518 582
569 459 814 1044 897 2140 10 132 13 695 13 2510 l0 2340 -497 3 -498 2 0
-2142 c-1 -2135 -5 -2538 -35 -2823 -86 -835 -312 -1262 -795 -1504 -304 -152
-669 -223 -1155 -224 -432 0 -714 57 -1020 208 -299 148 -520 369 -654 655
-101 217 -158 481 -203 945 -8 86 -12 804 -15 2503 l-4 2382 -499 0 -500 0 0
-2247z"/>
<path d="M8290 6995 l0 -3735 2785 0 2785 0 0 445 0 445 -2290 0 -2290 0 0
1265 0 1265 2060 0 2060 0 0 445 0 445 -2060 0 -2060 0 0 1135 0 1135 2200 0
2200 0 0 445 0 445 -2695 0 -2695 0 0 -3735z"/>
</g>
</svg>
