<?xml version="1.0" encoding="UTF-8" standalone="no"?>
<!-- Created with Inkscape (http://www.inkscape.org/) --> <svg width="9" height="10" viewBox="0 0 9 10" fill="none" xmlns="http://www.w3.org/2000/svg">
<rect x="1.40881" width="1.2" height="10" fill="#626262"/>
<path d="M0 7.56H5.03143" stroke="#626262"/>
<path d="M0 5.5H5.03143" stroke="#626262"/>
<path d="M1.40881 0.5H2.4151H3.42139H4.42767H4.63894C5.16555 0.5 5.68875 0.584404 6.18865 0.75V0.75L6.50148 0.853621C6.79211 0.949891 7.05642 1.11233 7.27359 1.32814V1.32814C7.38845 1.44228 7.48885 1.5701 7.57255 1.70872L7.65622 1.84729C7.71758 1.94893 7.77069 2.05534 7.81502 2.16548V2.16548C7.9042 2.38704 7.95701 2.62155 7.97141 2.85995L7.97986 3L7.98055 3.01704C7.99339 3.33611 7.9455 3.65471 7.83942 3.9559L7.82089 4.00853C7.70696 4.33199 7.52144 4.62556 7.27819 4.86729L7.27081 4.87462C7.18684 4.95806 7.09613 5.03444 6.9996 5.10296V5.10296C6.63572 5.36125 6.20053 5.5 5.7543 5.5H5.43396H4.42767H3.42139H2.4151H1.40881" stroke="#626262"/>
</svg>
