<?xml version="1.0" encoding="UTF-8" standalone="no"?> <svg width="9" height="11" viewBox="0 0 9 11" fill="none" xmlns="http://www.w3.org/2000/svg">
<rect x="1.3418" y="0.5" width="1.61905" height="10" fill="#1D1D1D"/>
<path d="M0 8.69049H5.33333" stroke="#1D1D1D" stroke-width="1.4"/>
<path d="M0 6.21429H4.79184" stroke="#1D1D1D" stroke-width="1.5"/>
<path d="M1.3333 1.21429H2.42551H3.56431H4.7031H5.50885C5.72997 1.21429 5.95017 1.24269 6.16405 1.29877L6.17371 1.3013C6.51803 1.39159 6.83948 1.55335 7.11716 1.77605L7.21858 1.85738C7.4264 2.02405 7.59723 2.23217 7.7202 2.46848V2.46848L7.79314 2.60863C7.92899 2.86966 7.99992 3.1596 7.99992 3.45387V3.45387V3.65798C7.99992 3.82009 7.98327 3.98177 7.95023 4.14048V4.14048C7.8608 4.57011 7.65373 4.96642 7.35212 5.28519L7.34725 5.29035L6.9807 5.60566L6.96988 5.61375C6.69498 5.81938 6.38697 5.97654 6.05914 6.07844V6.07844C5.76945 6.1685 5.46781 6.21429 5.16445 6.21429H4.7031H3.53899H2.42551H1.33325" stroke="#1D1D1D" stroke-width="1.5"/>
</svg>
