<?xml version="1.0" standalone="no"?>
<!DOCTYPE svg PUBLIC "-//W3C//DTD SVG 20010904//EN"
 "http://www.w3.org/TR/2001/REC-SVG-20010904/DTD/svg10.dtd">
<svg version="1.0" xmlns="http://www.w3.org/2000/svg"
 width="180.000000pt" height="180.000000pt" viewBox="0 0 180.000000 180.000000"
 preserveAspectRatio="xMidYMid meet">
<metadata>
Created by potrace 1.14, written by Peter Selinger 2001-2017
</metadata>
<g transform="translate(0.000000,180.000000) scale(0.100000,-0.100000)"
fill="#000000" stroke="none">
<path d="M743 1786 c-287 -55 -526 -236 -650 -491 -67 -140 -86 -224 -87 -390
0 -100 5 -159 17 -208 82 -329 328 -581 652 -668 105 -29 325 -32 428 -6 328
82 580 328 668 652 32 115 32 335 0 450 -48 176 -156 348 -292 463 -89 75
-241 154 -354 183 -103 26 -284 33 -382 15z m315 -62 c166 -34 302 -105 420
-218 161 -154 247 -341 259 -566 9 -167 -31 -325 -119 -475 -57 -96 -202 -238
-298 -292 -328 -184 -716 -139 -988 113 -168 155 -256 343 -269 574 -15 283
119 559 352 725 185 131 426 184 643 139z"/>
<path d="M726 1401 c-56 -6 -60 -8 -68 -36 -4 -16 -36 -190 -72 -385 -36 -195
-71 -388 -79 -427 l-14 -73 148 0 c146 0 149 0 154 23 2 12 39 200 81 417 42
217 78 399 81 404 8 12 96 0 122 -16 60 -37 59 -195 -1 -281 -25 -34 -87 -67
-130 -67 l-33 -1 32 -29 c83 -76 265 -59 361 33 54 52 75 102 79 192 4 69 1
86 -19 125 -28 55 -84 95 -163 115 -60 15 -346 19 -479 6z"/>
</g>
</svg>
